name rise37.2698peak67.6939fall79.5734.mot
datacolumns 19
datarows 15
range 2.67165600000000 2.69499200000000
endheader
time	ground_force1_vx	ground_force1_vy	ground_force1_vz	ground_force1_px	ground_force1_py	ground_force1_pz	ground_force2_vx	ground_force2_vy	ground_force2_vz	ground_force2_px	ground_force2_py	ground_force2_pz	ground_torque1_x	ground_torque1_y	ground_torque1_z	ground_torque2_x	ground_torque2_y	ground_torque2_z	
2.67165600000000	9.58298800000000	693.21790999999996	44.05563300000000	0.23703700000000	0.00000000000000	0.10876000000000	0.00000000000000	0.00000000000000	0.00000000000000	0.00000000000000	0.00000000000000	0.00000000000000	0.00000000000000	17.79033900000000	0.00000000000000	0.00000000000000	0.00000000000000	0.00000000000000	
2.67332500000000	9.20091200000000	693.97435599999994	44.09573300000000	0.23619500000000	0.00000000000000	0.10876500000000	0.00000000000000	0.00000000000000	0.00000000000000	0.00000000000000	0.00000000000000	0.00000000000000	0.00000000000000	17.84241200000000	0.00000000000000	0.00000000000000	0.00000000000000	0.00000000000000	
2.67498900000000	8.81163400000000	694.77862900000002	44.13888400000000	0.23533400000000	0.00000000000000	0.10877100000000	0.00000000000000	0.00000000000000	0.00000000000000	0.00000000000000	0.00000000000000	0.00000000000000	0.00000000000000	17.89722700000000	0.00000000000000	0.00000000000000	0.00000000000000	0.00000000000000	
2.67665400000000	8.41507200000000	695.62945500000001	44.18491200000000	0.23445400000000	0.00000000000000	0.10877700000000	0.00000000000000	0.00000000000000	0.00000000000000	0.00000000000000	0.00000000000000	0.00000000000000	0.00000000000000	17.95469700000000	0.00000000000000	0.00000000000000	0.00000000000000	0.00000000000000	
2.67832200000000	8.01116600000000	696.52556000000004	44.23365400000000	0.23355500000000	0.00000000000000	0.10878300000000	0.00000000000000	0.00000000000000	0.00000000000000	0.00000000000000	0.00000000000000	0.00000000000000	0.00000000000000	18.01473600000000	0.00000000000000	0.00000000000000	0.00000000000000	0.00000000000000	
2.67999100000000	7.59987800000000	697.46567400000004	44.28495000000000	0.23263800000000	0.00000000000000	0.10878900000000	0.00000000000000	0.00000000000000	0.00000000000000	0.00000000000000	0.00000000000000	0.00000000000000	0.00000000000000	18.07726600000000	0.00000000000000	0.00000000000000	0.00000000000000	0.00000000000000	
2.68165500000000	7.18119600000000	698.44853499999999	44.33864800000000	0.23170300000000	0.00000000000000	0.10879500000000	0.00000000000000	0.00000000000000	0.00000000000000	0.00000000000000	0.00000000000000	0.00000000000000	0.00000000000000	18.14220800000000	0.00000000000000	0.00000000000000	0.00000000000000	0.00000000000000	
2.68332300000000	6.75512500000000	699.47289200000000	44.39460400000000	0.23075000000000	0.00000000000000	0.10880100000000	0.00000000000000	0.00000000000000	0.00000000000000	0.00000000000000	0.00000000000000	0.00000000000000	0.00000000000000	18.20948900000000	0.00000000000000	0.00000000000000	0.00000000000000	0.00000000000000	
2.68499400000000	6.32169500000000	700.53751099999999	44.45268000000000	0.22978100000000	0.00000000000000	0.10880700000000	0.00000000000000	0.00000000000000	0.00000000000000	0.00000000000000	0.00000000000000	0.00000000000000	0.00000000000000	18.27903800000000	0.00000000000000	0.00000000000000	0.00000000000000	0.00000000000000	
2.68665500000000	5.88095800000000	701.64117599999997	44.51274600000000	0.22879400000000	0.00000000000000	0.10881300000000	0.00000000000000	0.00000000000000	0.00000000000000	0.00000000000000	0.00000000000000	0.00000000000000	0.00000000000000	18.35078700000000	0.00000000000000	0.00000000000000	0.00000000000000	0.00000000000000	
2.68832300000000	5.43298400000000	702.78269699999998	44.57468100000000	0.22779200000000	0.00000000000000	0.10881800000000	0.00000000000000	0.00000000000000	0.00000000000000	0.00000000000000	0.00000000000000	0.00000000000000	0.00000000000000	18.42467000000000	0.00000000000000	0.00000000000000	0.00000000000000	0.00000000000000	
2.68999600000000	4.97786600000000	703.96090600000002	44.63837100000000	0.22677600000000	0.00000000000000	0.10882400000000	0.00000000000000	0.00000000000000	0.00000000000000	0.00000000000000	0.00000000000000	0.00000000000000	0.00000000000000	18.50062400000000	0.00000000000000	0.00000000000000	0.00000000000000	0.00000000000000	
2.69165800000000	4.51571600000000	705.17466800000000	44.70371300000000	0.22574500000000	0.00000000000000	0.10882900000000	0.00000000000000	0.00000000000000	0.00000000000000	0.00000000000000	0.00000000000000	0.00000000000000	0.00000000000000	18.57858700000000	0.00000000000000	0.00000000000000	0.00000000000000	0.00000000000000	
2.69332300000000	4.04666400000000	706.42287599999997	44.77061000000000	0.22470200000000	0.00000000000000	0.10883400000000	0.00000000000000	0.00000000000000	0.00000000000000	0.00000000000000	0.00000000000000	0.00000000000000	0.00000000000000	18.65850000000000	0.00000000000000	0.00000000000000	0.00000000000000	0.00000000000000	
2.69499200000000	3.57086100000000	707.70445800000005	44.83897500000000	0.22364600000000	0.00000000000000	0.10883800000000	0.00000000000000	0.00000000000000	0.00000000000000	0.00000000000000	0.00000000000000	0.00000000000000	0.00000000000000	18.74030300000000	0.00000000000000	0.00000000000000	0.00000000000000	0.00000000000000	
